<?xml version="1.0" encoding="UTF-8" standalone="no"?>
<!DOCTYPE svg PUBLIC "-//W3C//DTD SVG 1.1//EN"
 "http://www.w3.org/Graphics/SVG/1.1/DTD/svg11.dtd">
<!-- Generated by graphviz version 3.0.0 (20220226.1711)
 -->
<!-- Title: g Pages: 1 -->
<svg width="297pt" height="241pt"
 viewBox="0.00 0.00 297.10 240.60" xmlns="http://www.w3.org/2000/svg" xmlns:xlink="http://www.w3.org/1999/xlink">
<g id="graph0" class="graph" transform="scale(1 1) rotate(0) translate(28.8 211.8)">
<title>g</title>
<polygon fill="white" stroke="transparent" points="-28.8,28.8 -28.8,-211.8 268.3,-211.8 268.3,28.8 -28.8,28.8"/>
<!-- Category#1 -->
<g id="node1" class="node">
<title>Category#1</title>
<path fill="none" stroke="black" d="M12,-146.5C12,-146.5 57,-146.5 57,-146.5 63,-146.5 69,-152.5 69,-158.5 69,-158.5 69,-170.5 69,-170.5 69,-176.5 63,-182.5 57,-182.5 57,-182.5 12,-182.5 12,-182.5 6,-182.5 0,-176.5 0,-170.5 0,-170.5 0,-158.5 0,-158.5 0,-152.5 6,-146.5 12,-146.5"/>
<text text-anchor="start" x="9.5" y="-161.5" font-family="ArialMT" font-size="10.00">Category#1</text>
</g>
<!-- Post#1 -->
<g id="node4" class="node">
<title>Post#1</title>
<path fill="none" stroke="black" d="M70.5,-73.5C70.5,-73.5 100.5,-73.5 100.5,-73.5 106.5,-73.5 112.5,-79.5 112.5,-85.5 112.5,-85.5 112.5,-97.5 112.5,-97.5 112.5,-103.5 106.5,-109.5 100.5,-109.5 100.5,-109.5 70.5,-109.5 70.5,-109.5 64.5,-109.5 58.5,-103.5 58.5,-97.5 58.5,-97.5 58.5,-85.5 58.5,-85.5 58.5,-79.5 64.5,-73.5 70.5,-73.5"/>
<text text-anchor="start" x="70.5" y="-88.5" font-family="ArialMT" font-size="10.00">Post#1</text>
</g>
<!-- Category#1&#45;&gt;Post#1 -->
<g id="edge1" class="edge">
<title>Category#1&#45;&gt;Post#1</title>
<path fill="none" stroke="black" d="M52.19,-138.87C57.3,-131.76 62.87,-124 67.97,-116.91"/>
<polygon fill="black" stroke="black" points="49.54,-137.17 46.85,-146.31 54.65,-140.84 49.54,-137.17"/>
<polygon fill="black" stroke="black" points="70.58,-118.68 73.27,-109.53 65.46,-115 70.58,-118.68"/>
</g>
<!-- Post#2 -->
<g id="node5" class="node">
<title>Post#2</title>
<path fill="none" stroke="black" d="M153.5,-73.5C153.5,-73.5 183.5,-73.5 183.5,-73.5 189.5,-73.5 195.5,-79.5 195.5,-85.5 195.5,-85.5 195.5,-97.5 195.5,-97.5 195.5,-103.5 189.5,-109.5 183.5,-109.5 183.5,-109.5 153.5,-109.5 153.5,-109.5 147.5,-109.5 141.5,-103.5 141.5,-97.5 141.5,-97.5 141.5,-85.5 141.5,-85.5 141.5,-79.5 147.5,-73.5 153.5,-73.5"/>
<text text-anchor="start" x="153.5" y="-88.5" font-family="ArialMT" font-size="10.00">Post#2</text>
</g>
<!-- Category#1&#45;&gt;Post#2 -->
<g id="edge2" class="edge">
<title>Category#1&#45;&gt;Post#2</title>
<path fill="none" stroke="black" d="M74.6,-142.26C93.24,-132.38 115.22,-120.73 133.22,-111.19"/>
<polygon fill="black" stroke="black" points="73.07,-139.5 66.6,-146.49 76.02,-145.06 73.07,-139.5"/>
<polygon fill="black" stroke="black" points="134.71,-113.97 141.19,-106.97 131.76,-108.4 134.71,-113.97"/>
</g>
<!-- Category#2 -->
<g id="node2" class="node">
<title>Category#2</title>
<path fill="none" stroke="black" d="M146,-0.5C146,-0.5 191,-0.5 191,-0.5 197,-0.5 203,-6.5 203,-12.5 203,-12.5 203,-24.5 203,-24.5 203,-30.5 197,-36.5 191,-36.5 191,-36.5 146,-36.5 146,-36.5 140,-36.5 134,-30.5 134,-24.5 134,-24.5 134,-12.5 134,-12.5 134,-6.5 140,-0.5 146,-0.5"/>
<text text-anchor="start" x="143.5" y="-15.5" font-family="ArialMT" font-size="10.00">Category#2</text>
</g>
<!-- Author#1 -->
<g id="node3" class="node">
<title>Author#1</title>
<path fill="none" stroke="black" d="M110.5,-146.5C110.5,-146.5 144.5,-146.5 144.5,-146.5 150.5,-146.5 156.5,-152.5 156.5,-158.5 156.5,-158.5 156.5,-170.5 156.5,-170.5 156.5,-176.5 150.5,-182.5 144.5,-182.5 144.5,-182.5 110.5,-182.5 110.5,-182.5 104.5,-182.5 98.5,-176.5 98.5,-170.5 98.5,-170.5 98.5,-158.5 98.5,-158.5 98.5,-152.5 104.5,-146.5 110.5,-146.5"/>
<text text-anchor="start" x="107.5" y="-161.5" font-family="ArialMT" font-size="10.00">Author#1</text>
</g>
<!-- Author#1&#45;&gt;Post#1 -->
<g id="edge4" class="edge">
<title>Author#1&#45;&gt;Post#1</title>
<path fill="none" stroke="black" d="M112.59,-138.29C106.95,-128.76 100.67,-118.14 95.57,-109.53"/>
<polygon fill="black" stroke="black" points="110.04,-140.17 117.33,-146.31 115.46,-136.96 110.04,-140.17"/>
</g>
<!-- Author#1&#45;&gt;Post#2 -->
<g id="edge5" class="edge">
<title>Author#1&#45;&gt;Post#2</title>
<path fill="none" stroke="black" d="M142.06,-138.29C147.56,-128.76 153.69,-118.14 158.67,-109.53"/>
<polygon fill="black" stroke="black" points="139.2,-136.94 137.42,-146.31 144.65,-140.09 139.2,-136.94"/>
</g>
<!-- Post#2&#45;&gt;Category#2 -->
<g id="edge8" class="edge">
<title>Post#2&#45;&gt;Category#2</title>
<path fill="none" stroke="black" d="M168.5,-64.13C168.5,-58.07 168.5,-51.64 168.5,-45.59"/>
<polygon fill="black" stroke="black" points="165.35,-64.31 168.5,-73.31 171.65,-64.31 165.35,-64.31"/>
<polygon fill="black" stroke="black" points="171.65,-45.53 168.5,-36.53 165.35,-45.53 171.65,-45.53"/>
</g>
<!-- Blog#1 -->
<g id="node6" class="node">
<title>Blog#1</title>
<path fill="none" stroke="black" d="M197.5,-146.5C197.5,-146.5 227.5,-146.5 227.5,-146.5 233.5,-146.5 239.5,-152.5 239.5,-158.5 239.5,-158.5 239.5,-170.5 239.5,-170.5 239.5,-176.5 233.5,-182.5 227.5,-182.5 227.5,-182.5 197.5,-182.5 197.5,-182.5 191.5,-182.5 185.5,-176.5 185.5,-170.5 185.5,-170.5 185.5,-158.5 185.5,-158.5 185.5,-152.5 191.5,-146.5 197.5,-146.5"/>
<text text-anchor="start" x="197.5" y="-161.5" font-family="ArialMT" font-size="10.00">Blog#1</text>
</g>
<!-- Blog#1&#45;&gt;Post#1 -->
<g id="edge9" class="edge">
<title>Blog#1&#45;&gt;Post#1</title>
<path fill="none" stroke="black" d="M177.14,-143.73C156.75,-132.33 131.52,-118.23 112.7,-107.71"/>
<polygon fill="black" stroke="black" points="175.86,-146.63 185.26,-148.27 178.94,-141.13 175.86,-146.63"/>
</g>
<!-- Blog#1&#45;&gt;Post#2 -->
<g id="edge10" class="edge">
<title>Blog#1&#45;&gt;Post#2</title>
<path fill="none" stroke="black" d="M197.06,-138.58C191.1,-128.97 184.44,-118.23 179.05,-109.53"/>
<polygon fill="black" stroke="black" points="194.43,-140.32 201.85,-146.31 199.79,-137 194.43,-140.32"/>
</g>
</g>
</svg>
