<?xml version="1.0" encoding="UTF-8" standalone="no"?>
<!DOCTYPE svg PUBLIC "-//W3C//DTD SVG 1.1//EN"
 "http://www.w3.org/Graphics/SVG/1.1/DTD/svg11.dtd">
<!-- Generated by graphviz version 3.0.0 (20220226.1711)
 -->
<!-- Title: g Pages: 1 -->
<svg width="322pt" height="247pt"
 viewBox="0.00 0.00 322.10 246.60" xmlns="http://www.w3.org/2000/svg" xmlns:xlink="http://www.w3.org/1999/xlink">
<g id="graph0" class="graph" transform="scale(1 1) rotate(0) translate(28.8 217.8)">
<title>g</title>
<polygon fill="white" stroke="transparent" points="-28.8,28.8 -28.8,-217.8 293.3,-217.8 293.3,28.8 -28.8,28.8"/>
<!-- Category#1 -->
<g id="node1" class="node">
<title>Category#1</title>
<path fill="none" stroke="black" d="M12,-149.5C12,-149.5 57,-149.5 57,-149.5 63,-149.5 69,-155.5 69,-161.5 69,-161.5 69,-173.5 69,-173.5 69,-179.5 63,-185.5 57,-185.5 57,-185.5 12,-185.5 12,-185.5 6,-185.5 0,-179.5 0,-173.5 0,-173.5 0,-161.5 0,-161.5 0,-155.5 6,-149.5 12,-149.5"/>
<text text-anchor="start" x="9.5" y="-164.5" font-family="ArialMT" font-size="10.00">Category#1</text>
</g>
<!-- Post#1 -->
<g id="node4" class="node">
<title>Post#1</title>
<path fill="none" stroke="black" d="M77.5,-73.5C77.5,-73.5 107.5,-73.5 107.5,-73.5 113.5,-73.5 119.5,-79.5 119.5,-85.5 119.5,-85.5 119.5,-97.5 119.5,-97.5 119.5,-103.5 113.5,-109.5 107.5,-109.5 107.5,-109.5 77.5,-109.5 77.5,-109.5 71.5,-109.5 65.5,-103.5 65.5,-97.5 65.5,-97.5 65.5,-85.5 65.5,-85.5 65.5,-79.5 71.5,-73.5 77.5,-73.5"/>
<text text-anchor="start" x="77.5" y="-88.5" font-family="ArialMT" font-size="10.00">Post#1</text>
</g>
<!-- Category#1&#45;&gt;Post#1 -->
<g id="edge1" class="edge">
<title>Category#1&#45;&gt;Post#1</title>
<path fill="none" stroke="black" d="M53.51,-142.25C59.92,-134.07 67.07,-124.94 73.48,-116.76"/>
<polygon fill="black" stroke="black" points="51.02,-140.31 47.95,-149.34 55.98,-144.2 51.02,-140.31"/>
<polygon fill="black" stroke="black" points="76.05,-118.6 79.12,-109.57 71.09,-114.71 76.05,-118.6"/>
</g>
<!-- Post#2 -->
<g id="node5" class="node">
<title>Post#2</title>
<path fill="none" stroke="black" d="M160.5,-73.5C160.5,-73.5 190.5,-73.5 190.5,-73.5 196.5,-73.5 202.5,-79.5 202.5,-85.5 202.5,-85.5 202.5,-97.5 202.5,-97.5 202.5,-103.5 196.5,-109.5 190.5,-109.5 190.5,-109.5 160.5,-109.5 160.5,-109.5 154.5,-109.5 148.5,-103.5 148.5,-97.5 148.5,-97.5 148.5,-85.5 148.5,-85.5 148.5,-79.5 154.5,-73.5 160.5,-73.5"/>
<text text-anchor="start" x="160.5" y="-88.5" font-family="ArialMT" font-size="10.00">Post#2</text>
</g>
<!-- Category#1&#45;&gt;Post#2 -->
<g id="edge2" class="edge">
<title>Category#1&#45;&gt;Post#2</title>
<path fill="none" stroke="black" d="M75.24,-145.12C95.75,-134.36 120.36,-121.44 140.07,-111.1"/>
<polygon fill="black" stroke="black" points="73.71,-142.37 67.2,-149.34 76.64,-147.94 73.71,-142.37"/>
<polygon fill="black" stroke="black" points="141.68,-113.81 148.19,-106.83 138.76,-108.23 141.68,-113.81"/>
</g>
<!-- Category#2 -->
<g id="node2" class="node">
<title>Category#2</title>
<path fill="none" stroke="black" d="M153,-0.5C153,-0.5 198,-0.5 198,-0.5 204,-0.5 210,-6.5 210,-12.5 210,-12.5 210,-24.5 210,-24.5 210,-30.5 204,-36.5 198,-36.5 198,-36.5 153,-36.5 153,-36.5 147,-36.5 141,-30.5 141,-24.5 141,-24.5 141,-12.5 141,-12.5 141,-6.5 147,-0.5 153,-0.5"/>
<text text-anchor="start" x="150.5" y="-15.5" font-family="ArialMT" font-size="10.00">Category#2</text>
</g>
<!-- Author#1 -->
<g id="node3" class="node">
<title>Author#1</title>
<path fill="none" stroke="black" d="M110,-146.5C110,-146.5 159,-146.5 159,-146.5 165,-146.5 171,-152.5 171,-158.5 171,-158.5 171,-176.5 171,-176.5 171,-182.5 165,-188.5 159,-188.5 159,-188.5 110,-188.5 110,-188.5 104,-188.5 98,-182.5 98,-176.5 98,-176.5 98,-158.5 98,-158.5 98,-152.5 104,-146.5 110,-146.5"/>
<text text-anchor="start" x="107.5" y="-174.1" font-family="Monaco" font-size="8.00">let(:author)</text>
<text text-anchor="start" x="115" y="-157.5" font-family="ArialMT" font-size="10.00">Author#1</text>
</g>
<!-- Author#1&#45;&gt;Post#1 -->
<g id="edge4" class="edge">
<title>Author#1&#45;&gt;Post#1</title>
<path fill="none" stroke="black" d="M118.56,-138.42C113.08,-128.76 107.1,-118.22 102.25,-109.69"/>
<polygon fill="black" stroke="black" points="115.84,-140.01 123.02,-146.28 121.32,-136.9 115.84,-140.01"/>
</g>
<!-- Author#1&#45;&gt;Post#2 -->
<g id="edge5" class="edge">
<title>Author#1&#45;&gt;Post#2</title>
<path fill="none" stroke="black" d="M150.22,-138.13C155.53,-128.55 161.3,-118.14 165.98,-109.69"/>
<polygon fill="black" stroke="black" points="147.31,-136.88 145.7,-146.28 152.82,-139.93 147.31,-136.88"/>
</g>
<!-- Post#2&#45;&gt;Category#2 -->
<g id="edge8" class="edge">
<title>Post#2&#45;&gt;Category#2</title>
<path fill="none" stroke="black" d="M175.5,-64.13C175.5,-58.07 175.5,-51.64 175.5,-45.59"/>
<polygon fill="black" stroke="black" points="172.35,-64.31 175.5,-73.31 178.65,-64.31 172.35,-64.31"/>
<polygon fill="black" stroke="black" points="178.65,-45.53 175.5,-36.53 172.35,-45.53 178.65,-45.53"/>
</g>
<!-- Blog#1 -->
<g id="node6" class="node">
<title>Blog#1</title>
<path fill="none" stroke="black" d="M212.5,-146.5C212.5,-146.5 252.5,-146.5 252.5,-146.5 258.5,-146.5 264.5,-152.5 264.5,-158.5 264.5,-158.5 264.5,-176.5 264.5,-176.5 264.5,-182.5 258.5,-188.5 252.5,-188.5 252.5,-188.5 212.5,-188.5 212.5,-188.5 206.5,-188.5 200.5,-182.5 200.5,-176.5 200.5,-176.5 200.5,-158.5 200.5,-158.5 200.5,-152.5 206.5,-146.5 212.5,-146.5"/>
<text text-anchor="start" x="209.5" y="-174.1" font-family="Monaco" font-size="8.00">let(:blog)</text>
<text text-anchor="start" x="217" y="-157.5" font-family="ArialMT" font-size="10.00">Blog#1</text>
</g>
<!-- Blog#1&#45;&gt;Post#1 -->
<g id="edge9" class="edge">
<title>Blog#1&#45;&gt;Post#1</title>
<path fill="none" stroke="black" d="M192.4,-145.3C169.12,-133 140.41,-117.83 119.75,-106.91"/>
<polygon fill="black" stroke="black" points="190.95,-148.1 200.38,-149.52 193.9,-142.53 190.95,-148.1"/>
</g>
<!-- Blog#1&#45;&gt;Post#2 -->
<g id="edge10" class="edge">
<title>Blog#1&#45;&gt;Post#2</title>
<path fill="none" stroke="black" d="M211.32,-139C203.75,-129.18 195.45,-118.39 188.74,-109.69"/>
<polygon fill="black" stroke="black" points="208.94,-141.07 216.92,-146.28 213.93,-137.23 208.94,-141.07"/>
</g>
</g>
</svg>
